<svg width="28" height="28" viewBox="0 0 28 28" fill="none" xmlns="http://www.w3.org/2000/svg">
<g id="mx_n_1718090036956">
<g id="Group 427319190">
<path id="Vector" d="M7.99533 13.9985C7.99533 13.3487 8.10618 12.7254 8.30232 12.1413L4.85894 9.56604C4.16711 10.941 3.80784 12.4593 3.81007 13.9985C3.81007 15.5914 4.18698 17.0939 4.85724 18.4276L8.2989 15.8481C8.09823 15.2521 7.9957 14.6274 7.99533 13.9985Z" fill="#FBBC05"/>
<path id="Vector_2" d="M14.0431 8.08632C15.4842 8.08632 16.7864 8.58602 17.8097 9.40464L20.7866 6.49428C18.9728 4.94828 16.6474 3.99323 14.0431 3.99323C9.9994 3.99323 6.52362 6.25722 4.85907 9.5658L8.30415 12.141C9.0972 9.78239 11.3587 8.08632 14.0431 8.08632Z" fill="#EA4335"/>
<path id="Vector_3" d="M14.043 19.9106C11.3577 19.9106 9.09622 18.2145 8.30232 15.8559L4.85895 18.4311C6.52265 21.7397 9.99843 24.0037 14.043 24.0037C16.5381 24.0037 18.9207 23.1364 20.7097 21.5103L17.4403 19.0357C16.5185 19.6044 15.3571 19.9106 14.0421 19.9106" fill="#34A853"/>
<path id="Vector_4" d="M23.8099 13.9984C23.8099 13.4075 23.7161 12.7705 23.5771 12.1796H14.0417V16.045H19.53C19.2563 17.3633 18.5093 18.3764 17.4408 19.0355L20.7093 21.5101C22.5879 19.803 23.8099 17.2601 23.8099 13.9984Z" fill="#4285F4"/>
</g>
</g>
</svg>
